<?xml version="1.0" standalone="no"?>
<!DOCTYPE svg PUBLIC "-//W3C//DTD SVG 20010904//EN"
 "http://www.w3.org/TR/2001/REC-SVG-20010904/DTD/svg10.dtd">
<svg version="1.0" xmlns="http://www.w3.org/2000/svg"
 width="260.000000pt" height="260.000000pt" viewBox="0 0 260.000000 260.000000"
 preserveAspectRatio="xMidYMid meet">
<metadata>
Created by potrace 1.11, written by Peter Selinger 2001-2013
</metadata>
<g transform="translate(0.000000,260.000000) scale(0.100000,-0.100000)"
fill="#000000" stroke="none">
<path d="M1040 2575 c-273 -58 -484 -174 -675 -371 -179 -185 -287 -389 -342
-645 -25 -119 -25 -400 1 -519 25 -119 61 -222 107 -314 38 -74 104 -185 118
-196 3 -3 22 -25 41 -50 52 -68 119 -136 180 -183 30 -23 60 -47 65 -53 16
-19 205 -124 269 -150 274 -111 613 -124 894 -35 220 71 438 213 576 377 89
105 110 135 159 223 79 139 115 240 148 414 18 96 21 135 16 267 -6 168 -25
272 -76 417 -28 78 -139 286 -164 308 -7 6 -25 28 -42 50 -16 22 -59 69 -95
105 -176 176 -404 302 -630 349 -30 6 -66 14 -80 17 -14 4 -99 8 -190 10 -146
3 -178 1 -280 -21z m465 -30 c117 -20 230 -51 272 -74 10 -5 56 -29 103 -52
218 -106 435 -323 540 -540 23 -46 45 -92 51 -102 17 -31 53 -151 66 -217 18
-94 21 -141 21 -270 -1 -196 -34 -358 -100 -492 -15 -31 -28 -60 -28 -64 0
-12 -72 -127 -118 -189 -65 -86 -156 -178 -242 -244 -71 -54 -191 -131 -204
-131 -3 0 -30 -12 -59 -26 -278 -137 -735 -138 -1007 -3 -33 16 -61 29 -64 29
-14 0 -140 80 -206 131 -179 137 -295 289 -403 529 -20 45 -56 165 -63 210 -3
19 -10 55 -14 80 -13 70 -10 306 5 393 20 112 52 218 86 287 16 32 29 61 29
64 0 3 17 33 37 68 81 139 196 270 323 367 71 54 190 131 204 131 3 0 29 11
58 25 57 27 198 76 198 70 0 -3 11 0 24 5 13 5 50 12 83 16 32 3 60 8 62 10
10 9 277 1 346 -11z"/>
<path d="M1321 2341 c-29 -29 -27 -67 4 -87 56 -37 117 22 77 75 -24 33 -55
38 -81 12z"/>
<path d="M1176 2204 c-9 -8 -16 -19 -16 -24 0 -12 29 -40 41 -40 15 0 39 26
39 42 0 17 -20 38 -36 38 -7 0 -20 -7 -28 -16z"/>
<path d="M1333 2173 c-7 -2 -13 -15 -13 -27 0 -47 53 -63 72 -21 18 39 -15 66
-59 48z"/>
<path d="M1130 2080 c-34 -4 -47 -11 -56 -29 -16 -32 -4 -62 32 -81 16 -8 31
-16 33 -18 3 -1 4 -70 4 -152 -1 -130 -3 -153 -21 -182 -64 -105 -252 -494
-252 -520 0 -16 7 -42 16 -58 35 -58 37 -58 416 -58 337 1 348 1 377 22 66 46
66 94 2 206 -53 94 -161 275 -196 330 -68 107 -67 103 -69 267 -1 141 0 153
17 153 24 0 67 44 67 69 0 40 -36 50 -185 53 -77 2 -160 1 -185 -2z m313 -39
c4 -1 7 -8 7 -16 0 -15 -16 -19 -52 -16 -17 2 -18 -12 -18 -174 0 -166 1 -179
23 -218 23 -41 186 -322 218 -375 75 -127 82 -154 51 -192 -18 -23 -22 -23
-223 -22 -529 2 -497 0 -519 22 -29 29 -24 65 23 157 23 46 84 164 135 264
l92 181 1 167 c0 91 0 172 0 179 -1 7 -12 11 -29 10 -35 -3 -56 10 -43 25 6 8
58 12 168 10 87 0 161 -2 166 -2z"/>
<path d="M1165 1517 c-10 -8 -25 -28 -34 -45 -183 -356 -198 -393 -165 -406
20 -8 648 -8 668 0 23 9 19 43 -8 89 -14 22 -50 85 -81 140 -31 55 -67 118
-81 140 -13 22 -25 45 -27 50 -2 6 -12 3 -23 -7 -18 -16 -41 -22 -76 -19 -9 0
-35 17 -58 36 -45 37 -83 45 -115 22z"/>
<path d="M805 770 c-79 -4 -90 -7 -87 -22 4 -24 -11 -23 -33 2 -16 17 -31 20
-107 20 l-88 0 0 -129 0 -129 85 2 c71 2 90 6 115 25 20 14 31 18 29 9 -4 -34
1 -36 103 -36 105 -1 118 4 118 41 0 15 -10 17 -71 17 l-70 0 3 27 c3 26 5 27
61 25 60 -1 57 -4 57 46 0 4 -27 7 -60 7 -51 -1 -60 2 -60 17 0 10 3 18 8 19
101 13 111 6 152 -102 l35 -94 44 -1 c42 0 44 1 63 45 11 25 30 75 43 111 13
36 26 73 30 83 6 15 1 17 -37 17 l-43 0 -24 -85 c-13 -47 -26 -83 -29 -80 -3
3 -17 40 -32 83 l-26 77 -44 5 c-25 3 -85 3 -135 0z m-171 -76 c19 -18 22 -94
4 -112 -7 -7 -25 -12 -40 -12 -28 0 -28 0 -28 70 0 67 1 70 24 70 14 0 32 -7
40 -16z"/>
<path d="M1281 766 c-4 -6 -7 -65 -7 -131 l1 -120 121 -1 c112 -1 121 1 130
20 13 30 85 30 98 -1 9 -20 16 -21 130 -19 74 1 130 7 144 14 18 11 26 10 44
-3 46 -32 163 -12 186 33 12 21 7 69 -9 88 -6 8 -37 21 -68 30 -68 20 -79 29
-52 43 17 9 24 8 41 -9 12 -12 30 -19 47 -17 29 3 33 7 33 32 0 53 -175 70
-194 18 -6 -14 -9 -13 -29 5 -19 18 -37 22 -114 24 -105 4 -100 9 -97 -95 1
-37 -1 -65 -5 -62 -3 4 -18 39 -32 78 -21 56 -31 72 -50 77 -48 13 -69 -2 -91
-60 -53 -144 -43 -130 -93 -134 -63 -7 -65 -4 -65 99 l0 93 -30 4 c-17 3 -34
0 -39 -6z m549 -61 c17 -11 -9 -35 -36 -35 -19 0 -24 5 -24 25 0 22 4 25 25
21 13 -3 29 -8 35 -11z m-231 -87 c1 -5 -11 -8 -25 -8 -24 0 -25 2 -19 33 11
50 18 54 31 16 7 -18 13 -37 13 -41z m330 38 c9 -8 39 -23 66 -33 37 -14 51
-24 53 -41 3 -16 -2 -22 -16 -22 -31 0 -52 11 -52 26 0 8 -9 14 -21 14 -26 0
-85 56 -66 63 19 8 19 8 36 -7z m-91 -63 c3 -20 -1 -23 -32 -23 -32 0 -36 3
-36 26 0 23 3 25 33 22 24 -2 33 -8 35 -25z"/>
</g>
</svg>
